<svg xmlns="http://www.w3.org/2000/svg" width="12.994" height="30" viewBox="0 0 12.994 30">
  <g id="pago" transform="translate(-265.787 -39.988)">
    <path id="Trazado_270" data-name="Trazado 270" d="M270.21,42.132v2.511a6.428,6.428,0,0,0,2.143,12.489,2.143,2.143,0,1,1,0,4.285A3.876,3.876,0,0,1,269.57,59.8a2.143,2.143,0,1,0-3.28,2.758,8.888,8.888,0,0,0,3.92,2.791v2.5a2.143,2.143,0,0,0,4.285,0V65.335a6.428,6.428,0,0,0-2.143-12.489,2.143,2.143,0,0,1,0-4.286,3.441,3.441,0,0,1,2.318,1.12,2.143,2.143,0,1,0,2.981-3.08,8.279,8.279,0,0,0-3.156-1.973v-2.5a2.143,2.143,0,1,0-4.285,0Zm0,0" fill="#4e4040"/>
  </g>
</svg>
