<svg xmlns="http://www.w3.org/2000/svg" width="42.104" height="30" viewBox="0 0 42.104 30">
  <g id="email" transform="translate(0 -33.085)">
    <path id="Trazado_205" data-name="Trazado 205" d="M172.747,48.949c0-.048.033-.095.031-.143l-12.849,12.38,12.833,11.985c.007-.086-.016-.172-.016-.259Z" transform="translate(-130.674 -12.845)" fill="#4e4040"/>
    <path id="Trazado_206" data-name="Trazado 206" d="M36.29,126.9l-5.245,5.047a1.372,1.372,0,0,1-1.887.015l-5.231-4.874L11.01,139.539a2.974,2.974,0,0,0,1,.2H48.173a2.973,2.973,0,0,0,1.443-.4Z" transform="translate(-8.996 -76.655)" fill="#4e4040"/>
    <path id="Trazado_207" data-name="Trazado 207" d="M26.091,52.415,45.7,33.526a2.972,2.972,0,0,0-1.515-.441H8.027a2.98,2.98,0,0,0-1.9.707Z" transform="translate(-5.009 0)" fill="#4e4040"/>
    <path id="Trazado_208" data-name="Trazado 208" d="M0,52.1V75.6a2.983,2.983,0,0,0,.129.779L12.886,64.1Z" transform="translate(0 -15.537)" fill="#4e4040"/>
  </g>
</svg>
