<svg xmlns="http://www.w3.org/2000/svg" width="22.624" height="39.925" viewBox="0 0 22.624 39.925">
  <path id="facebook" d="M14.475,39.925H8.091a1.937,1.937,0,0,1-1.934-1.937V23.567H2.434A1.937,1.937,0,0,1,.5,21.63V15.451a1.937,1.937,0,0,1,1.934-1.937H6.158V10.419A10.546,10.546,0,0,1,8.939,2.871,10.01,10.01,0,0,1,16.326,0l4.868.008a1.938,1.938,0,0,1,1.93,1.937V7.682a1.937,1.937,0,0,1-1.933,1.937H17.914c-1,0-1.254.2-1.309.262-.09.1-.2.391-.2,1.187v2.445h4.536A1.934,1.934,0,0,1,22.9,15.451l0,6.179a1.937,1.937,0,0,1-1.934,1.936H16.409V37.988a1.937,1.937,0,0,1-1.934,1.937Zm-5.98-2.341h5.577V22.519a1.294,1.294,0,0,1,1.291-1.293h5.195l0-5.371h-5.2a1.293,1.293,0,0,1-1.291-1.293V11.069a3.991,3.991,0,0,1,.782-2.736,3.957,3.957,0,0,1,3.06-1.054h2.874V2.348L16.324,2.34c-4.829,0-7.829,3.1-7.829,8.079v4.142A1.293,1.293,0,0,1,7.2,15.854H2.837v5.371H7.2a1.293,1.293,0,0,1,1.291,1.293ZM21.19,2.348h0Zm0,0" transform="translate(-0.5 0)" fill="#fff"/>
</svg>
