<svg id="instagram" xmlns="http://www.w3.org/2000/svg" width="39.925" height="39.925" viewBox="0 0 39.925 39.925">
  <path id="Trazado_199" data-name="Trazado 199" d="M29.117,0H10.806A10.819,10.819,0,0,0,0,10.807V29.118A10.819,10.819,0,0,0,10.806,39.925H29.117A10.819,10.819,0,0,0,39.924,29.118V10.807A10.819,10.819,0,0,0,29.117,0Zm8.467,29.118a8.476,8.476,0,0,1-8.467,8.466H10.806A8.476,8.476,0,0,1,2.34,29.118V10.807a8.476,8.476,0,0,1,8.467-8.467H29.117a8.476,8.476,0,0,1,8.466,8.467Zm0,0" transform="translate(0.001 0)" fill="#fff"/>
  <path id="Trazado_200" data-name="Trazado 200" d="M126.921,116a10.917,10.917,0,1,0,10.917,10.917A10.929,10.929,0,0,0,126.921,116Zm0,19.493a8.576,8.576,0,1,1,8.576-8.576A8.586,8.586,0,0,1,126.921,135.5Zm0,0" transform="translate(-106.958 -106.958)" fill="#fff"/>
  <path id="Trazado_201" data-name="Trazado 201" d="M361.2,66.285a3.226,3.226,0,1,0,3.226,3.226A3.229,3.229,0,0,0,361.2,66.285Zm0,4.111a.885.885,0,1,1,.885-.885A.886.886,0,0,1,361.2,70.4Zm0,0" transform="translate(-330.062 -61.116)" fill="#fff"/>
</svg>
