<svg xmlns="http://www.w3.org/2000/svg" width="37" height="30" viewBox="0 0 37 30">
  <g id="alinear-a-la-izquierda" transform="translate(0 -31.5)">
    <g id="Grupo_108" data-name="Grupo 108" transform="translate(0 31.5)">
      <g id="Grupo_107" data-name="Grupo 107" transform="translate(0 0)">
        <path id="Trazado_215" data-name="Trazado 215" d="M35.889,31.5H1.111a1.111,1.111,0,0,0,0,2.222H35.889a1.111,1.111,0,0,0,0-2.222Z" transform="translate(0 -31.5)" fill="#4e4040"/>
      </g>
    </g>
    <g id="Grupo_110" data-name="Grupo 110" transform="translate(0 40.722)">
      <g id="Grupo_109" data-name="Grupo 109" transform="translate(0 0)">
        <path id="Trazado_216" data-name="Trazado 216" d="M25.555,114.5H1.111a1.111,1.111,0,1,0,0,2.222H25.555a1.111,1.111,0,1,0,0-2.222Z" transform="translate(0 -114.5)" fill="#4e4040"/>
      </g>
    </g>
    <g id="Grupo_112" data-name="Grupo 112" transform="translate(0 50.056)">
      <g id="Grupo_111" data-name="Grupo 111">
        <path id="Trazado_217" data-name="Trazado 217" d="M35.889,198.5H1.111a1.111,1.111,0,0,0,0,2.222H35.889a1.111,1.111,0,0,0,0-2.222Z" transform="translate(0 -198.5)" fill="#4e4040"/>
      </g>
    </g>
    <g id="Grupo_114" data-name="Grupo 114" transform="translate(0 59.278)">
      <g id="Grupo_113" data-name="Grupo 113" transform="translate(0 0)">
        <path id="Trazado_218" data-name="Trazado 218" d="M16.778,281.5H1.111a1.111,1.111,0,0,0,0,2.222H16.778a1.111,1.111,0,0,0,0-2.222Z" transform="translate(0 -281.5)" fill="#4e4040"/>
      </g>
    </g>
  </g>
</svg>
