<svg id="lapiz" xmlns="http://www.w3.org/2000/svg" width="140" height="140" viewBox="0 0 140 140">
  <path id="Trazado_177" data-name="Trazado 177" d="M88.958,125.5H16.042A16.055,16.055,0,0,1,0,109.458V19.042A16.055,16.055,0,0,1,16.042,3H88.958A16.055,16.055,0,0,1,105,19.042v90.417A16.055,16.055,0,0,1,88.958,125.5Z" transform="translate(0 14.5)" fill="#2196f3"/>
  <path id="Trazado_178" data-name="Trazado 178" d="M52.125,35H14.208A10.22,10.22,0,0,1,4,24.792v-8.75a4.377,4.377,0,0,1,4.375-4.375h9.351a16.047,16.047,0,0,1,30.876,0h9.357a4.377,4.377,0,0,1,4.375,4.375v8.75A10.22,10.22,0,0,1,52.125,35Z" transform="translate(19.333)" fill="#1976d2"/>
  <path id="Trazado_179" data-name="Trazado 179" d="M23.333,3H16.042A16.055,16.055,0,0,0,0,19.042v90.417A16.055,16.055,0,0,0,16.042,125.5H52.5V20.5H33.542A10.22,10.22,0,0,1,23.333,10.292Z" transform="translate(0 14.5)" fill="#1d83d4"/>
  <path id="Trazado_180" data-name="Trazado 180" d="M33.167,0A16.071,16.071,0,0,0,17.732,11.667H8.375A4.377,4.377,0,0,0,4,16.042v8.75A10.22,10.22,0,0,0,14.208,35H33.167Z" transform="translate(19.333)" fill="#1667b7"/>
  <g id="Grupo_70" data-name="Grupo 70" transform="translate(17.5 52.5)">
    <path id="Trazado_181" data-name="Trazado 181" d="M68.625,17.75H7.375a4.375,4.375,0,0,1,0-8.75h61.25a4.375,4.375,0,0,1,0,8.75Z" transform="translate(-3 -9)" fill="#fff"/>
    <path id="Trazado_182" data-name="Trazado 182" d="M68.625,20.75H7.375a4.375,4.375,0,0,1,0-8.75h61.25a4.375,4.375,0,0,1,0,8.75Z" transform="translate(-3 5.5)" fill="#fff"/>
    <path id="Trazado_183" data-name="Trazado 183" d="M68.625,23.75H7.375a4.375,4.375,0,0,1,0-8.75h61.25a4.375,4.375,0,0,1,0,8.75Z" transform="translate(-3 20)" fill="#fff"/>
    <path id="Trazado_184" data-name="Trazado 184" d="M68.625,26.75H7.375a4.375,4.375,0,0,1,0-8.75h61.25a4.375,4.375,0,0,1,0,8.75Z" transform="translate(-3 34.5)" fill="#fff"/>
  </g>
  <path id="Trazado_185" data-name="Trazado 185" d="M38,9H7.375a4.375,4.375,0,0,0,0,8.75H38Z" transform="translate(14.5 43.5)" fill="#dedede"/>
  <path id="Trazado_186" data-name="Trazado 186" d="M38,12H7.375a4.375,4.375,0,0,0,0,8.75H38Z" transform="translate(14.5 58)" fill="#dedede"/>
  <path id="Trazado_187" data-name="Trazado 187" d="M38,15H7.375a4.375,4.375,0,0,0,0,8.75H38Z" transform="translate(14.5 72.5)" fill="#dedede"/>
  <path id="Trazado_188" data-name="Trazado 188" d="M38,18H7.375a4.375,4.375,0,0,0,0,8.75H38Z" transform="translate(14.5 87)" fill="#dedede"/>
  <path id="Trazado_189" data-name="Trazado 189" d="M31.667,93.5a2.921,2.921,0,0,1-2.608-1.61L21.54,76.852A14.645,14.645,0,0,1,20,70.33V17.667a11.667,11.667,0,1,1,23.333,0V70.33a14.645,14.645,0,0,1-1.54,6.522v.006L34.274,91.9a2.927,2.927,0,0,1-2.607,1.6Zm7.519-17.955h.058Z" transform="translate(96.667 29)" fill="#ffc107"/>
  <path id="Trazado_190" data-name="Trazado 190" d="M31.667,6A11.678,11.678,0,0,0,20,17.667V70.33a14.645,14.645,0,0,0,1.54,6.522L29.059,91.89a2.921,2.921,0,0,0,2.608,1.61Z" transform="translate(96.667 29)" fill="#dea806"/>
</svg>
