<svg xmlns="http://www.w3.org/2000/svg" width="139.612" height="141.719" viewBox="0 0 139.612 141.719">
  <g id="politica_1_" data-name="politica (1)" transform="translate(-3.806)">
    <path id="Trazado_88" data-name="Trazado 88" d="M376.3,25.282H359.163a4.214,4.214,0,0,1-4.214-4.214V4.214A4.214,4.214,0,0,1,359.163,0H376.3a4.214,4.214,0,0,1,4.214,4.214V21.068A4.214,4.214,0,0,1,376.3,25.282Z" transform="translate(-253.948)" fill="#fd9468"/>
    <path id="Trazado_89" data-name="Trazado 89" d="M376.3,162.194H359.163a4.214,4.214,0,0,1-4.214-4.214V141.126a4.214,4.214,0,0,1,4.214-4.214H376.3a4.214,4.214,0,0,1,4.214,4.214V157.98A4.213,4.213,0,0,1,376.3,162.194Z" transform="translate(-253.948 -99.015)" fill="#98d5b9"/>
    <g id="Grupo_33" data-name="Grupo 33" transform="translate(3.806)">
      <path id="Trazado_90" data-name="Trazado 90" d="M84.146,25.282H8.02a4.214,4.214,0,0,1-4.214-4.214V4.214A4.214,4.214,0,0,1,8.02,0H84.146A4.214,4.214,0,0,1,88.36,4.214V21.068a4.214,4.214,0,0,1-4.214,4.214Z" transform="translate(-3.806)" fill="#fd9468"/>
      <g id="Grupo_32" data-name="Grupo 32" transform="translate(27.389 10.534)">
        <path id="Trazado_91" data-name="Trazado 91" d="M147.28,42.271H104.863a2.107,2.107,0,0,1,0-4.213H147.28a2.107,2.107,0,1,1,0,4.213Z" transform="translate(-102.756 -38.058)" fill="#fff"/>
      </g>
      <circle id="Elipse_40" data-name="Elipse 40" cx="4.214" cy="4.214" r="4.214" transform="translate(8.427 8.427)" fill="#fff"/>
    </g>
    <g id="Grupo_35" data-name="Grupo 35" transform="translate(3.806 37.897)">
      <path id="Trazado_92" data-name="Trazado 92" d="M84.146,162.194H8.02a4.214,4.214,0,0,1-4.214-4.214V141.126a4.214,4.214,0,0,1,4.214-4.214H84.146a4.214,4.214,0,0,1,4.214,4.214V157.98a4.214,4.214,0,0,1-4.214,4.214Z" transform="translate(-3.806 -136.912)" fill="#98d5b9"/>
      <g id="Grupo_34" data-name="Grupo 34" transform="translate(27.389 10.535)">
        <path id="Trazado_93" data-name="Trazado 93" d="M147.28,179.184H104.863a2.107,2.107,0,0,1,0-4.213H147.28a2.107,2.107,0,0,1,0,4.213Z" transform="translate(-102.756 -174.971)" fill="#fff"/>
      </g>
      <circle id="Elipse_41" data-name="Elipse 41" cx="4.214" cy="4.214" r="4.214" transform="translate(8.427 8.427)" fill="#fff"/>
    </g>
    <g id="Grupo_37" data-name="Grupo 37" transform="translate(3.806 75.793)">
      <path id="Trazado_94" data-name="Trazado 94" d="M84.146,299.107H8.02a4.214,4.214,0,0,1-4.214-4.214V278.039a4.214,4.214,0,0,1,4.214-4.214H84.146a4.214,4.214,0,0,1,4.214,4.214v16.855a4.214,4.214,0,0,1-4.214,4.214Z" transform="translate(-3.806 -273.825)" fill="#fee45a"/>
      <g id="Grupo_36" data-name="Grupo 36" transform="translate(27.389 10.534)">
        <path id="Trazado_95" data-name="Trazado 95" d="M147.28,316.1H104.863a2.107,2.107,0,0,1,0-4.214H147.28a2.107,2.107,0,0,1,0,4.214Z" transform="translate(-102.756 -311.882)" fill="#fff"/>
      </g>
      <circle id="Elipse_42" data-name="Elipse 42" cx="4.214" cy="4.214" r="4.214" transform="translate(8.427 8.427)" fill="#fff"/>
    </g>
    <g id="Grupo_39" data-name="Grupo 39" transform="translate(3.806 114.33)">
      <path id="Trazado_96" data-name="Trazado 96" d="M84.146,438.332H8.02a4.214,4.214,0,0,1-4.214-4.214V417.264A4.214,4.214,0,0,1,8.02,413.05H84.146a4.214,4.214,0,0,1,4.214,4.214v16.855a4.214,4.214,0,0,1-4.214,4.214Z" transform="translate(-3.806 -413.05)" fill="#8ac9fe"/>
      <g id="Grupo_38" data-name="Grupo 38" transform="translate(27.389 10.534)">
        <path id="Trazado_97" data-name="Trazado 97" d="M147.28,455.322H104.863a2.107,2.107,0,0,1,0-4.214H147.28a2.107,2.107,0,0,1,0,4.214Z" transform="translate(-102.756 -451.108)" fill="#fff"/>
      </g>
      <circle id="Elipse_43" data-name="Elipse 43" cx="4.214" cy="4.214" r="4.214" transform="translate(8.427 8.428)" fill="#fff"/>
    </g>
    <g id="Grupo_42" data-name="Grupo 42" transform="translate(91.008 52.551)">
      <path id="Trazado_98" data-name="Trazado 98" d="M362.812,228.9v-7.817a4.224,4.224,0,1,1,8.447,0v26.413l-4.244,19.21H336.933l-17.668-37.348a4.324,4.324,0,0,1,7.036-4.834l9.232,9.673a1.124,1.124,0,0,0,1.936-.776V194.08a4.224,4.224,0,1,1,8.447,0v25.925Z" transform="translate(-318.85 -189.856)" fill="#ffcebf"/>
      <g id="Grupo_40" data-name="Grupo 40" transform="translate(16.445 0)">
        <path id="Trazado_99" data-name="Trazado 99" d="M409.914,287.409l0,0a4.221,4.221,0,0,1,.071.756v26.413a24.494,24.494,0,0,1-23.917,19.21h-7.8l1.638,3.464h30.082l4.244-19.21V291.632a4.224,4.224,0,0,0-4.314-4.223Z" transform="translate(-378.263 -260.406)" fill="#ffb09e"/>
        <path id="Trazado_100" data-name="Trazado 100" d="M401.115,190.616V226.3a3.744,3.744,0,0,0,4.245,3.71V194.08a4.224,4.224,0,0,0-4.224-4.224c-.031,0-.062,0-.093,0A4.246,4.246,0,0,1,401.115,190.616Z" transform="translate(-394.738 -189.856)" fill="#ffb09e"/>
      </g>
      <path id="Trazado_101" data-name="Trazado 101" d="M407.469,477v-3.892a5.618,5.618,0,0,0-5.618-5.618H374.578a5.618,5.618,0,0,0-5.618,5.618V477a2.809,2.809,0,0,0,2.809,2.809H404.66A2.809,2.809,0,0,0,407.469,477Z" transform="translate(-355.09 -390.644)" fill="#fe646f"/>
      <path id="Trazado_102" data-name="Trazado 102" d="M416.639,299.449v-7.817a4.224,4.224,0,1,1,8.447,0v11.694Z" transform="translate(-389.571 -260.406)" fill="#ffcebf"/>
      <path id="Trazado_103" data-name="Trazado 103" d="M447.157,299.449v-7.817a4.224,4.224,0,0,1,8.447,0v10.154Z" transform="translate(-411.642 -260.406)" fill="#ffcebf"/>
      <g id="Grupo_41" data-name="Grupo 41" transform="translate(29.513 27.002)">
        <path id="Trazado_104" data-name="Trazado 104" d="M457.77,287.407a4.2,4.2,0,0,0-1.778.4,4.22,4.22,0,0,1,2.445,3.827v5.48a4.85,4.85,0,0,0,3.556,4.674V291.631A4.223,4.223,0,0,0,457.77,287.407Z" transform="translate(-447.544 -287.407)" fill="#ffb09e"/>
        <path id="Trazado_105" data-name="Trazado 105" d="M427.251,287.407a4.2,4.2,0,0,0-1.778.4,4.22,4.22,0,0,1,2.445,3.827v5.48a4.85,4.85,0,0,0,3.556,4.674V291.631A4.223,4.223,0,0,0,427.251,287.407Z" transform="translate(-425.473 -287.407)" fill="#ffb09e"/>
      </g>
    </g>
  </g>
</svg>
