<svg id="subir" xmlns="http://www.w3.org/2000/svg" width="64.538" height="60" viewBox="0 0 64.538 60">
  <path id="Trazado_271" data-name="Trazado 271" d="M54.454,0H10.084A10.1,10.1,0,0,0,0,10.084V45.378A10.1,10.1,0,0,0,10.084,55.462H44.5a2.521,2.521,0,0,0,0-5.042H35.21l-5.8-7.52L47.783,19.537,60.148,33.2a2.521,2.521,0,0,0,4.39-1.691V10.084A10.1,10.1,0,0,0,54.454,0ZM59.5,24.969l-9.979-11.03a2.521,2.521,0,0,0-3.851.133L26.239,38.781l-6.6-8.556a2.521,2.521,0,0,0-2-.982h0a2.521,2.521,0,0,0-2,.984L10.1,37.44a2.521,2.521,0,0,0,4,3.074L17.649,35.9l11.2,14.523H10.084a5.048,5.048,0,0,1-5.042-5.042V10.084a5.048,5.048,0,0,1,5.042-5.042h44.37A5.048,5.048,0,0,1,59.5,10.084Zm0,0" transform="translate(0 0)" fill="#716666"/>
  <path id="Trazado_272" data-name="Trazado 272" d="M87.563,72a7.563,7.563,0,1,0,7.563,7.563A7.571,7.571,0,0,0,87.563,72Zm0,10.084a2.521,2.521,0,1,1,2.521-2.521A2.524,2.524,0,0,1,87.563,82.084Zm0,0" transform="translate(-69.916 -62.924)" fill="#716666"/>
  <path id="Trazado_273" data-name="Trazado 273" d="M367.555,289.883l-.022-.023a6.284,6.284,0,0,0-8.916-.011l-4.867,4.8a2.521,2.521,0,0,0,3.541,3.589l3.258-3.213v14.15a2.521,2.521,0,0,0,5.042,0V295.1l3.118,3.221a2.521,2.521,0,1,0,3.622-3.507Zm0,0" transform="translate(-308.504 -251.697)" fill="#716666"/>
</svg>
