<svg xmlns="http://www.w3.org/2000/svg" width="31.804" height="30" viewBox="0 0 31.804 30">
  <g id="usuario" transform="translate(0 -7.045)">
    <g id="Grupo_104" data-name="Grupo 104" transform="translate(0 7.045)">
      <path id="Trazado_210" data-name="Trazado 210" d="M1.275,149.584H30.529a1.325,1.325,0,0,0,1-.437,1.078,1.078,0,0,0,.266-.861,16.093,16.093,0,0,0-8.471-12.173,10.483,10.483,0,0,1-14.843,0A16.09,16.09,0,0,0,.009,148.286a1.08,1.08,0,0,0,.266.861A1.325,1.325,0,0,0,1.275,149.584Z" transform="translate(0 -119.584)" fill="#4e4040"/>
      <path id="Trazado_211" data-name="Trazado 211" d="M55.574,22.418c.171.179.349.35.534.515a9.052,9.052,0,0,0,12.117,0c.185-.165.363-.336.534-.515s.336-.362.492-.554a9.107,9.107,0,1,0-14.168,0C55.238,22.056,55.4,22.239,55.574,22.418Z" transform="translate(-46.264 -7.045)" fill="#4e4040"/>
    </g>
  </g>
</svg>
