<svg id="whatsapp" xmlns="http://www.w3.org/2000/svg" width="39.925" height="39.925" viewBox="0 0 39.925 39.925">
  <path id="Trazado_202" data-name="Trazado 202" d="M34.254,5.671A19.233,19.233,0,0,0,20.564,0h0A19.365,19.365,0,0,0,3.357,28.241L.1,37.538a1.8,1.8,0,0,0,1.687,2.387,1.808,1.808,0,0,0,.6-.1l9.3-3.254a19.362,19.362,0,0,0,22.57-30.9ZM32.6,31.4a17.026,17.026,0,0,1-20.024,3,1.8,1.8,0,0,0-1.438-.111L2.689,37.236l2.956-8.447a1.8,1.8,0,0,0-.112-1.439A17.021,17.021,0,0,1,20.562,2.341h0A17.02,17.02,0,0,1,32.6,31.4Zm0,0" transform="translate(0 0)" fill="#fff"/>
  <path id="Trazado_203" data-name="Trazado 203" d="M145.176,126a2.287,2.287,0,0,0-3.231,0l-.974.974a14.179,14.179,0,0,1-5.695-5.694l.974-.974a2.286,2.286,0,0,0,0-3.231l-2.625-2.625a2.287,2.287,0,0,0-3.231,0l-2.1,2.1c-1.2,1.2-1.263,3.271-.169,5.823a25.558,25.558,0,0,0,11.752,11.752,8.476,8.476,0,0,0,3.269.779,3.482,3.482,0,0,0,2.554-.948l2.1-2.1h0a2.284,2.284,0,0,0,0-3.231Zm-1.131,6.3c-.343.343-1.4.464-3.245-.327a23.279,23.279,0,0,1-10.522-10.522c-.791-1.846-.671-2.9-.327-3.245l2.06-2.06,2.544,2.544-1.219,1.22a1.787,1.787,0,0,0-.331,2.081,16.519,16.519,0,0,0,7.256,7.256,1.787,1.787,0,0,0,2.081-.331l1.219-1.219,2.544,2.544Zm0,0" transform="translate(-117.417 -104.913)" fill="#fff"/>
</svg>
