<svg id="Happy" xmlns="http://www.w3.org/2000/svg" width="372.03" height="372.029" viewBox="0 0 372.03 372.029">
  <g id="Group_129" data-name="Group 129" transform="translate(18.581 2.672)">
    <path id="Path_307" data-name="Path 307" d="M70.878,368.312a5.45,5.45,0,0,0-5.45,5.45v3.668a5.45,5.45,0,1,0,10.9,0v-3.668A5.45,5.45,0,0,0,70.878,368.312Z" transform="translate(-36.468 -103.361)" fill="#f25817"/>
    <path id="Path_308" data-name="Path 308" d="M70.878,442.881a5.45,5.45,0,0,0-5.45,5.45V452a5.45,5.45,0,1,0,10.9,0v-3.668A5.45,5.45,0,0,0,70.878,442.881Z" transform="translate(-36.468 -123.747)" fill="#f25817"/>
    <path id="Path_309" data-name="Path 309" d="M95.487,393.465a5.431,5.431,0,0,0,3.851-1.594l2.6-2.593a5.449,5.449,0,0,0-7.7-7.711l-2.6,2.593a5.45,5.45,0,0,0,3.851,9.305Z" transform="translate(-43.196 -106.549)" fill="#f25817"/>
    <path id="Path_310" data-name="Path 310" d="M41.441,434.294l-2.6,2.593a5.449,5.449,0,1,0,7.7,7.711l2.6-2.593a5.449,5.449,0,0,0-7.7-7.711Z" transform="translate(-28.764 -120.964)" fill="#f25817"/>
    <path id="Path_311" data-name="Path 311" d="M109.351,408.12h-3.672a5.45,5.45,0,0,0,0,10.9h3.672a5.45,5.45,0,0,0,0-10.9Z" transform="translate(-45.982 -114.244)" fill="#f25817"/>
    <path id="Path_312" data-name="Path 312" d="M40.144,413.57a5.45,5.45,0,0,0-5.45-5.45H31.022a5.45,5.45,0,0,0,0,10.9h3.672A5.449,5.449,0,0,0,40.144,413.57Z" transform="translate(-25.572 -114.244)" fill="#f25817"/>
    <path id="Path_313" data-name="Path 313" d="M99.338,434.294a5.449,5.449,0,0,0-7.7,7.711l2.6,2.593a5.449,5.449,0,0,0,7.7-7.711Z" transform="translate(-43.196 -120.964)" fill="#f25817"/>
    <path id="Path_314" data-name="Path 314" d="M46.547,381.566a5.449,5.449,0,0,0-7.7,7.711l2.6,2.593a5.449,5.449,0,0,0,7.7-7.711Z" transform="translate(-28.764 -106.549)" fill="#f25817"/>
    <path id="Path_315" data-name="Path 315" d="M418.192,3.677a5.45,5.45,0,0,0-5.45,5.45v3.667a5.45,5.45,0,0,0,10.9,0V9.127a5.45,5.45,0,0,0-5.45-5.45Z" transform="translate(-131.417 -3.677)" fill="#f25817"/>
    <path id="Path_316" data-name="Path 316" d="M418.192,78.245a5.45,5.45,0,0,0-5.45,5.45v3.668a5.45,5.45,0,0,0,10.9,0V83.695A5.45,5.45,0,0,0,418.192,78.245Z" transform="translate(-131.417 -24.062)" fill="#f25817"/>
    <path id="Path_317" data-name="Path 317" d="M442.8,28.829a5.431,5.431,0,0,0,3.851-1.594l2.6-2.593a5.449,5.449,0,1,0-7.7-7.711l-2.6,2.593a5.45,5.45,0,0,0,3.851,9.305Z" transform="translate(-138.145 -6.865)" fill="#f25817"/>
    <path id="Path_318" data-name="Path 318" d="M388.755,69.658l-2.6,2.593a5.45,5.45,0,0,0,7.7,7.712l2.6-2.593a5.45,5.45,0,0,0-7.7-7.712Z" transform="translate(-123.712 -21.279)" fill="#f25817"/>
    <path id="Path_319" data-name="Path 319" d="M456.665,43.485h-3.672a5.45,5.45,0,1,0,0,10.9h3.672a5.45,5.45,0,0,0,0-10.9Z" transform="translate(-140.931 -14.56)" fill="#f25817"/>
    <path id="Path_320" data-name="Path 320" d="M387.458,48.935a5.45,5.45,0,0,0-5.45-5.45h-3.672a5.45,5.45,0,1,0,0,10.9h3.672A5.449,5.449,0,0,0,387.458,48.935Z" transform="translate(-120.521 -14.56)" fill="#f25817"/>
    <path id="Path_321" data-name="Path 321" d="M446.651,69.658a5.449,5.449,0,0,0-7.7,7.712l2.6,2.593a5.45,5.45,0,0,0,7.7-7.712Z" transform="translate(-138.144 -21.279)" fill="#f25817"/>
    <path id="Path_322" data-name="Path 322" d="M388.755,27.234a5.449,5.449,0,1,0,7.7-7.711l-2.6-2.593a5.449,5.449,0,1,0-7.7,7.711Z" transform="translate(-123.712 -6.864)" fill="#f25817"/>
  </g>
  <path id="Path_323" data-name="Path 323" d="M244.194,2.351,256.146,24.2a4.52,4.52,0,0,0,1.8,1.8L279.8,37.952a4.521,4.521,0,0,1,0,7.933L257.944,57.837a4.52,4.52,0,0,0-1.8,1.8L244.2,81.486a4.521,4.521,0,0,1-7.932,0L224.311,59.634a4.52,4.52,0,0,0-1.8-1.8L200.661,45.885a4.521,4.521,0,0,1,0-7.932L222.514,26a4.52,4.52,0,0,0,1.8-1.8L236.262,2.352a4.52,4.52,0,0,1,7.932,0Z" transform="translate(-54.214 0)" fill="#fca309"/>
  <path id="Path_324" data-name="Path 324" d="M292.05,37.953,270.2,26a4.52,4.52,0,0,1-1.8-1.8L256.449,2.351a4.521,4.521,0,0,0-7.932,0l-5.382,9.841,3.674,6.718A25.122,25.122,0,0,0,256.8,28.9a14.842,14.842,0,0,1,0,26.044,25.121,25.121,0,0,0-9.987,9.987l-3.674,6.718,5.382,9.841a4.521,4.521,0,0,0,7.933,0L268.4,59.634a4.52,4.52,0,0,1,1.8-1.8l21.852-11.951a4.521,4.521,0,0,0,0-7.933Z" transform="translate(-66.468 0)" fill="#fd8e09"/>
  <path id="Path_325" data-name="Path 325" d="M45.884,89.973l11.951,21.852a4.52,4.52,0,0,0,1.8,1.8l21.852,11.951a4.521,4.521,0,0,1,0,7.933L59.634,145.459a4.52,4.52,0,0,0-1.8,1.8L45.885,169.108a4.521,4.521,0,0,1-7.933,0L26,147.256a4.52,4.52,0,0,0-1.8-1.8L2.351,133.507a4.521,4.521,0,0,1,0-7.933L24.2,113.623a4.52,4.52,0,0,0,1.8-1.8L37.952,89.974a4.52,4.52,0,0,1,7.932,0Z" transform="translate(0 -23.954)" fill="#fca309"/>
  <path id="Path_326" data-name="Path 326" d="M93.74,125.575,71.888,113.623a4.52,4.52,0,0,1-1.8-1.8L58.139,89.973a4.52,4.52,0,0,0-7.932,0l-5.382,9.841,3.674,6.718a25.122,25.122,0,0,0,9.987,9.987,14.842,14.842,0,0,1,0,26.044A25.122,25.122,0,0,0,48.5,152.55l-3.674,6.718,5.382,9.841a4.52,4.52,0,0,0,7.932,0L70.09,147.256a4.52,4.52,0,0,1,1.8-1.8L93.74,133.508a4.521,4.521,0,0,0,0-7.933Z" transform="translate(-12.254 -23.954)" fill="#fd8e09"/>
  <path id="Path_327" data-name="Path 327" d="M442.5,131.6l11.951,21.852a4.52,4.52,0,0,0,1.8,1.8L478.105,167.2a4.521,4.521,0,0,1,0,7.933l-21.852,11.951a4.52,4.52,0,0,0-1.8,1.8L442.5,210.732a4.521,4.521,0,0,1-7.932,0L422.621,188.88a4.52,4.52,0,0,0-1.8-1.8l-21.852-11.951a4.521,4.521,0,0,1,0-7.932l21.852-11.951a4.52,4.52,0,0,0,1.8-1.8L434.572,131.6A4.521,4.521,0,0,1,442.5,131.6Z" transform="translate(-108.427 -35.333)" fill="#fca309"/>
  <path id="Path_328" data-name="Path 328" d="M490.361,167.2l-21.852-11.951a4.52,4.52,0,0,1-1.8-1.8L454.76,131.6a4.52,4.52,0,0,0-7.932,0l-5.382,9.841,3.674,6.718a25.122,25.122,0,0,0,9.987,9.987,14.842,14.842,0,0,1,0,26.044,25.122,25.122,0,0,0-9.987,9.987l-3.674,6.718,5.382,9.841a4.52,4.52,0,0,0,7.932,0l11.951-21.852a4.52,4.52,0,0,1,1.8-1.8l21.852-11.951a4.522,4.522,0,0,0,0-7.934Z" transform="translate(-120.682 -35.334)" fill="#fd8e09"/>
  <g id="Group_130" data-name="Group 130" transform="translate(72.266 118.831)">
    <path id="Path_329" data-name="Path 329" d="M301.5,439.008c.842-17.833,7.218-86.977,55.195-184.12A13.82,13.82,0,1,1,380.632,268.6c-15.739,23.73-53.9,86.553-78.024,170.584a.563.563,0,0,1-1.105-.176Z" transform="translate(-154.691 -186.399)" fill="#f13555"/>
    <path id="Path_330" data-name="Path 330" d="M186.354,425.207c-2.306-30.376-14.155-149.588-61.893-222.316a13.6,13.6,0,1,0-22.429,15.387c16.7,23.059,55.482,86.309,83.21,207.088A.563.563,0,0,0,186.354,425.207Z" transform="translate(-99.455 -172.611)" fill="#f13555"/>
    <path id="Path_331" data-name="Path 331" d="M249.716,416.2l-12.607-238.2a13.74,13.74,0,1,1,27.438.063L250.842,416.207A.564.564,0,0,1,249.716,416.2Z" transform="translate(-137.082 -163.54)" fill="#f13555"/>
  </g>
</svg>
