<svg id="Grupo_120" data-name="Grupo 120" xmlns="http://www.w3.org/2000/svg" width="32.217" height="30" viewBox="0 0 32.217 30">
  <g id="Grupo_119" data-name="Grupo 119" transform="translate(0 0)">
    <path id="Trazado_265" data-name="Trazado 265" d="M31.677,30.6l-4.883-4.883v-5.64a1.847,1.847,0,0,0-3.693,0v1.947l-3.636-3.636a4.858,4.858,0,0,0-6.716,0L.541,30.6a1.847,1.847,0,0,0,2.613,2.612L15.361,21.007a1.09,1.09,0,0,1,1.494,0l12.209,12.21A1.847,1.847,0,1,0,31.677,30.6Z" transform="translate(-0.001 -17.047)" fill="#4e4040"/>
    <path id="Trazado_266" data-name="Trazado 266" d="M80.914,128.014a.906.906,0,0,0-1.283,0L68.893,138.749a.909.909,0,0,0-.266.642v7.83a3.327,3.327,0,0,0,3.327,3.327h5.317v-8.234h6v8.234H88.59a3.327,3.327,0,0,0,3.327-3.327v-7.83a.905.905,0,0,0-.266-.642Z" transform="translate(-64.164 -120.549)" fill="#4e4040"/>
  </g>
</svg>
