<svg id="boton-de-llamada-telefonica" xmlns="http://www.w3.org/2000/svg" width="30" height="30" viewBox="0 0 30 30">
  <g id="call">
    <path id="Trazado_219" data-name="Trazado 219" d="M24,13A25.947,25.947,0,0,1,13,24L9.333,20.333A1.327,1.327,0,0,0,7.667,20a17.433,17.433,0,0,1-6,1A1.575,1.575,0,0,0,0,22.667v5.667A1.575,1.575,0,0,0,1.667,30,28.31,28.31,0,0,0,30,1.667,1.575,1.575,0,0,0,28.333,0H22.5a1.575,1.575,0,0,0-1.667,1.667,18.875,18.875,0,0,1-1,6,2.053,2.053,0,0,0,.333,1.667Z" fill="#4e4040"/>
  </g>
</svg>
