<svg xmlns="http://www.w3.org/2000/svg" width="140" height="132.759" viewBox="0 0 140 132.759">
  <g id="las-compras-en-linea" transform="translate(-24 -32)">
    <path id="Trazado_76" data-name="Trazado 76" d="M185.034,80.276a2.414,2.414,0,0,1-2.414-2.414V53.724a16.9,16.9,0,1,0-33.793,0V77.862a2.414,2.414,0,1,1-4.828,0V53.724a21.724,21.724,0,1,1,43.448,0V77.862A2.414,2.414,0,0,1,185.034,80.276Z" transform="translate(-83.793)" fill="#7d1709"/>
    <path id="Trazado_77" data-name="Trazado 77" d="M106.069,248.552H24L28.828,152h72.414Z" transform="translate(0 -83.793)" fill="#eb423f"/>
    <path id="Trazado_78" data-name="Trazado 78" d="M304.138,248.552h-19.31L280,152h19.31Z" transform="translate(-178.759 -83.793)" fill="#d13330"/>
    <path id="Trazado_79" data-name="Trazado 79" d="M311.383,236.48c-.048,0-.1,0-.145,0a2.414,2.414,0,0,1-2.408-2.272L304,152.142c0-.048,0-.094,0-.142h4.834l4.819,81.927a2.416,2.416,0,0,1-2.269,2.553Z" transform="translate(-195.517 -83.793)" fill="#a82a27"/>
    <path id="Trazado_80" data-name="Trazado 80" d="M432.138,326.759h-19.31l-.3-3.9v0L408,264h19.31l4.45,57.837v0Z" transform="translate(-268.138 -162)" fill="#eba72e"/>
    <path id="Trazado_81" data-name="Trazado 81" d="M439.483,314.678a2.208,2.208,0,0,1-.244.012,2.414,2.414,0,0,1-2.4-2.172l-.087-.863-4.74-47.413A2.14,2.14,0,0,1,432,264h4.84l4.743,47.434.06.6A2.414,2.414,0,0,1,439.483,314.678Z" transform="translate(-284.896 -162)" fill="#e09f2c"/>
    <path id="Trazado_82" data-name="Trazado 82" d="M442.612,432.9h-2.9l-6.753-10.132L426.2,432.9h-2.9L423,429v0l7.468-11.2.48-.718a2.417,2.417,0,0,1,4.019,0l.332.5,6.937,10.4v0Z" transform="translate(-278.612 -268.138)" fill="#e09f2c"/>
    <path id="Trazado_83" data-name="Trazado 83" d="M278.759,326.759H216L220.828,264h53.1Z" transform="translate(-134.069 -162)" fill="#f7b030"/>
    <path id="Trazado_84" data-name="Trazado 84" d="M288.9,337.793h-4.828A12.083,12.083,0,0,1,272,325.724v-19.31a2.414,2.414,0,1,1,4.828,0v19.31a7.249,7.249,0,0,0,7.241,7.241H288.9a7.249,7.249,0,0,0,7.241-7.241v-19.31a2.414,2.414,0,1,1,4.828,0v19.31A12.083,12.083,0,0,1,288.9,337.793Z" transform="translate(-173.172 -189.931)" fill="#e9eef2"/>
    <path id="Trazado_85" data-name="Trazado 85" d="M96,184h4.828v14.483H96Z" transform="translate(-50.276 -106.138)" fill="#a61e0c"/>
    <path id="Trazado_86" data-name="Trazado 86" d="M98.414,80.276A2.414,2.414,0,0,1,96,77.862V53.724a21.724,21.724,0,1,1,43.448,0V77.862a2.414,2.414,0,1,1-4.828,0V53.724a16.9,16.9,0,1,0-33.793,0V77.862A2.414,2.414,0,0,1,98.414,80.276Z" transform="translate(-50.276)" fill="#a61e0c"/>
    <path id="Trazado_87" data-name="Trazado 87" d="M94.483,240.138H80v-19.31L87.241,216l7.241,4.828Z" transform="translate(-39.103 -128.483)" fill="#f7b030"/>
  </g>
</svg>
